<?xml version="1.0"?>
<svg xmlns="http://www.w3.org/2000/svg" xmlns:xlink="http://www.w3.org/1999/xlink" version="1.1" id="Capa_1" x="0px" y="0px" viewBox="0 0 512.014 512.014" style="enable-background:new 0 0 512.014 512.014;" xml:space="preserve" width="512px" height="512px" class=""><g><g>
	<g>
		<path d="M256.013,0.014h-42.667c-88.324,0.1-159.9,71.676-160,160v17.931L1.336,272.195c-0.866,1.579-1.321,3.351-1.323,5.152    c-0.018,0.606-0.018,1.213,0,1.819c0.502,17.171,14.829,30.684,32,30.181c7.758,0.431,15.2,3.218,21.333,7.989v34.677    c-0.024,0.815-0.024,1.631,0,2.447c0.676,22.888,19.778,40.896,42.667,40.22h64c0.606,0.018,1.213,0.018,1.819,0    c17.171-0.502,30.684-14.829,30.181-32v-64H170.68v64c0.062,0.634,0.062,1.273,0,1.907c-0.527,5.365-5.302,9.286-10.667,8.76h-64    c-0.851,0.054-1.705,0.054-2.556,0c-11.076-0.706-19.483-10.257-18.777-21.333v-39.765c0.001-3.055-1.308-5.964-3.595-7.989    c-10.698-9.857-24.539-15.612-39.072-16.245c-0.047,0.006-0.095,0.011-0.142,0.016c-5.143,0.545-9.755-3.182-10.301-8.326    l51.787-93.867c0.866-1.579,1.321-3.351,1.323-5.152v-20.672C74.768,83.467,136.8,21.435,213.347,21.347h42.539    c0.649-0.069,1.304-0.073,1.954-0.012c5.39,0.507,9.348,5.288,8.841,10.678v53.333h21.333V32.014c0.018-0.606,0.018-1.213,0-1.819    C287.511,13.024,273.184-0.489,256.013,0.014z" data-original="#000000" class="active-path" data-old_color="#ffffff" fill="#ffffff"/>
	</g>
</g><g>
	<g>
		<path d="M437.347,320.014H320.013v21.333h117.333c0.634-0.062,1.273-0.062,1.907,0c5.365,0.527,9.287,5.302,8.76,10.667v20.16    c-1.536,6.368-11.819,43.84-42.667,43.84c-5.891,0-10.667,4.776-10.667,10.667v64H192.013v-32H170.68v42.667    c0,5.891,4.776,10.667,10.667,10.667h224v0c5.891,0,10.667-4.776,10.667-10.667v-64.939c33.344-6.304,49.237-41.483,53.12-60.928    c0.143-0.702,0.214-1.417,0.213-2.133v-21.333c0.018-0.606,0.018-1.213,0-1.819C468.845,333.024,454.518,319.511,437.347,320.014z    " data-original="#000000" class="active-path" data-old_color="#ffffff" fill="#ffffff"/>
	</g>
</g><g>
	<g>
		<path d="M501.347,128.014h-26.891c-1.129-3.169-2.421-6.277-3.872-9.312l19.029-19.029c4.164-4.165,4.164-10.917,0-15.083    l-30.176-30.176c-4.165-4.164-10.917-4.164-15.083,0l-19.029,19.029c-3.036-1.445-6.144-2.733-9.312-3.861V42.68    c0-5.891-4.776-10.667-10.667-10.667H362.68c-5.891,0-10.667,4.776-10.667,10.667v26.901c-5.808,2.051-11.402,4.662-16.704,7.797    l10.837,18.368c5.998-3.531,12.461-6.206,19.2-7.947c4.709-1.216,7.999-5.462,8-10.325V53.347h21.333v24.128    c-0.006,4.861,3.275,9.111,7.979,10.336c6.739,1.741,13.202,4.416,19.2,7.947c4.192,2.477,9.529,1.801,12.971-1.643l17.067-17.067    l15.093,15.061l-17.067,17.067c-3.447,3.439-4.127,8.777-1.653,12.971c3.538,5.997,6.22,12.46,7.968,19.2    c1.215,4.705,5.456,7.994,10.315,8h24.128v21.323h-24.107c-4.859,0.006-9.1,3.295-10.315,8c-1.748,6.74-4.43,13.203-7.968,19.2    c-2.474,4.194-1.794,9.531,1.653,12.971l17.067,17.067l-15.083,15.083l-17.067-17.067c-3.442-3.444-8.779-4.12-12.971-1.643    c-5.998,3.531-12.461,6.206-19.2,7.947c-4.709,1.216-7.999,5.462-8,10.325v24.128h-21.333v-24.117    c-0.001-4.863-3.291-9.11-8-10.325c-6.739-1.741-13.202-4.416-19.2-7.947c-4.192-2.477-9.529-1.801-12.971,1.643L316.12,243    l-15.083-15.083l17.067-17.067c3.447-3.439,4.128-8.777,1.653-12.971c-3.538-5.997-6.22-12.46-7.968-19.2    c-1.215-4.705-5.456-7.994-10.315-8H266.68v21.333h26.901c1.125,3.169,2.414,6.277,3.861,9.312l-19.029,19.029    c-4.164,4.165-4.164,10.917,0,15.083l30.176,30.176c4.165,4.164,10.917,4.164,15.083,0l19.029-19.029    c3.036,1.445,6.144,2.733,9.312,3.861v26.901c0,5.891,4.776,10.667,10.667,10.667h42.667l0,0c5.891,0,10.667-4.776,10.667-10.667    v-26.891c3.168-1.128,6.276-2.417,9.312-3.861l19.029,19.019c4.165,4.164,10.917,4.164,15.083,0l30.176-30.176    c4.164-4.165,4.164-10.917,0-15.083l-19.04-19.029c1.451-3.035,2.743-6.143,3.872-9.312h26.901    c5.891,0,10.667-4.776,10.667-10.667V138.68C512.013,132.789,507.238,128.014,501.347,128.014z" data-original="#000000" class="active-path" data-old_color="#ffffff" fill="#ffffff"/>
	</g>
</g><g>
	<g>
		<path d="M384.013,117.347c-23.564,0-42.667,19.103-42.667,42.667s19.102,42.667,42.667,42.667    c23.564,0,42.667-19.103,42.667-42.667S407.578,117.347,384.013,117.347z M384.013,181.347c-11.782,0-21.333-9.551-21.333-21.333    c0-11.782,9.551-21.333,21.333-21.333c11.782,0,21.333,9.551,21.333,21.333C405.347,171.796,395.796,181.347,384.013,181.347z" data-original="#000000" class="active-path" data-old_color="#ffffff" fill="#ffffff"/>
	</g>
</g><g>
	<g>
		<path d="M160.013,170.68v10.667h-32V170.68H106.68v10.667c-0.006,0.295-0.006,0.589,0,0.884    c0.244,11.538,9.795,20.693,21.333,20.449h32c0.295,0.006,0.589,0.006,0.884,0c11.538-0.244,20.693-9.795,20.449-21.333V170.68    H160.013z" data-original="#000000" class="active-path" data-old_color="#ffffff" fill="#ffffff"/>
	</g>
</g><g>
	<g>
		<path d="M298.68,298.68c-17.673,0-32,14.327-32,32c0,17.673,14.327,32,32,32c17.673,0,32-14.327,32-32    C330.68,313.007,316.353,298.68,298.68,298.68z M298.68,341.347c-5.891,0-10.667-4.776-10.667-10.667    c0-5.891,4.776-10.667,10.667-10.667c5.891,0,10.667,4.776,10.667,10.667C309.347,336.571,304.571,341.347,298.68,341.347z" data-original="#000000" class="active-path" data-old_color="#ffffff" fill="#ffffff"/>
	</g>
</g><g>
	<g>
		<path d="M181.347,245.347c-17.673,0-32,14.327-32,32c0,17.673,14.327,32,32,32c17.673,0,32-14.327,32-32    C213.347,259.674,199.02,245.347,181.347,245.347z M181.347,288.014c-5.891,0-10.667-4.776-10.667-10.667    c0-5.891,4.776-10.667,10.667-10.667c5.891,0,10.667,4.776,10.667,10.667C192.013,283.238,187.238,288.014,181.347,288.014z" data-original="#000000" class="active-path" data-old_color="#ffffff" fill="#ffffff"/>
	</g>
</g><g>
	<g>
		<path d="M277.347,74.68c-17.673,0-32,14.327-32,32c0,17.673,14.327,32,32,32c17.673,0,32-14.327,32-32    C309.347,89.007,295.02,74.68,277.347,74.68z M277.347,117.347c-5.891,0-10.667-4.776-10.667-10.667s4.776-10.667,10.667-10.667    c5.891,0,10.667,4.776,10.667,10.667S283.238,117.347,277.347,117.347z" data-original="#000000" class="active-path" data-old_color="#ffffff" fill="#ffffff"/>
	</g>
</g><g>
	<g>
		<rect x="224.013" y="170.68" width="21.333" height="21.333" data-original="#000000" class="active-path" data-old_color="#ffffff" fill="#ffffff"/>
	</g>
</g><g>
	<g>
		<rect x="224.013" y="213.347" width="21.333" height="21.333" data-original="#000000" class="active-path" data-old_color="#ffffff" fill="#ffffff"/>
	</g>
</g><g>
	<g>
		<rect x="170.68" y="416.014" width="21.333" height="21.333" data-original="#000000" class="active-path" data-old_color="#ffffff" fill="#ffffff"/>
	</g>
</g></g> </svg>
