<?xml version="1.0"?>
<svg xmlns="http://www.w3.org/2000/svg" xmlns:xlink="http://www.w3.org/1999/xlink" version="1.1" id="Capa_1" x="0px" y="0px" viewBox="0 0 486.342 486.342" style="enable-background:new 0 0 486.342 486.342;" xml:space="preserve" width="512px" height="512px" class=""><g><g>
	<path d="M386.603,337.425c-7.22,0-13.094,5.875-13.094,13.096c0,7.22,5.874,13.094,13.094,13.094   c7.222,0,13.097-5.875,13.097-13.096C399.7,343.299,393.825,337.425,386.603,337.425z" data-original="#000000" class="active-path" data-old_color="#ffffff" fill="#ffffff"/>
	<path d="M95.864,337.425c-7.22,0-13.094,5.875-13.094,13.096c0,7.22,5.874,13.094,13.094,13.094   c7.221,0,13.096-5.875,13.096-13.096C108.96,343.299,103.085,337.425,95.864,337.425z" data-original="#000000" class="active-path" data-old_color="#ffffff" fill="#ffffff"/>
	<path d="M340.311,152.304c-0.088-0.157-0.194-0.301-0.293-0.449c-0.063-0.094-0.119-0.193-0.186-0.284   c-0.789-1.068-1.86-1.875-3.076-2.352c-0.002-0.001-0.005-0.002-0.008-0.003c-0.292-0.114-0.592-0.207-0.899-0.282   c-0.051-0.012-0.102-0.02-0.152-0.03c-0.255-0.056-0.511-0.101-0.772-0.127c-0.104-0.012-0.207-0.015-0.311-0.021   c-0.136-0.008-0.271-0.027-0.407-0.027h-27.962c-3.866,0-7,3.134-7,7v88.998c0,3.866,3.134,7,7,7h77.878   c2.485,0,4.784-1.317,6.04-3.462c1.256-2.145,1.281-4.795,0.065-6.962L340.311,152.304z M313.244,237.726v-42.262l43.203,14.229   l15.723,28.033H313.244z" data-original="#000000" class="active-path" data-old_color="#ffffff" fill="#ffffff"/>
	<path d="M327.902,264.292H307.32c-3.866,0-7,3.134-7,7c0,3.866,3.134,7,7,7h20.582c3.866,0,7-3.134,7-7   C334.902,267.426,331.769,264.292,327.902,264.292z" data-original="#000000" class="active-path" data-old_color="#ffffff" fill="#ffffff"/>
	<path d="M470.418,298.534V260.3c0-2.866-1.748-5.443-4.411-6.504l-44.042-17.528l-61.581-113.272   c-1.226-2.253-3.585-3.656-6.15-3.656h-16.269V94.413c0-3.866-3.134-7-7-7h-25.163c-3.866,0-7,3.134-7,7v24.926h-14.975V94.413   c0-3.866-3.134-7-7-7H7c-3.866,0-7,3.134-7,7v212.533c0,7.554,2.225,13.87,6.104,18.303C2.225,329.682,0,335.998,0,343.552v6.967   c0,3.866,3.134,7,7,7h40.967c3.402,23.387,23.582,41.41,47.898,41.41c0.001,0,0.004,0,0.004,0h0.001l0,0   c24.314,0,44.494-18.022,47.896-41.41h192.485c0.841,0,1.648-0.153,2.399-0.428c3.218,23.594,23.489,41.838,47.953,41.838   c0.001,0,0.004,0,0.004,0h0.001l0,0c24.315,0,44.493-18.022,47.896-41.41h29.245c12.457,0,22.591-10.134,22.591-22.59V320.12   C486.342,309.983,479.631,301.385,470.418,298.534z M312.802,101.413h11.163v17.926h-11.163V101.413z M95.87,384.929h-0.004   c-18.975,0-34.412-15.436-34.412-34.408c0-18.976,15.438-34.414,34.412-34.414c18.976,0,34.413,15.438,34.413,34.412   C130.279,369.492,114.844,384.929,95.87,384.929z M135.209,313.471c-9.809-10.998-24.149-17.306-39.344-17.306   c-27.599,0-50.46,20.677-53.905,47.354H14c0.006-4.225,1.087-11.27,8.22-11.27c3.866,0,7-3.134,7-7c0-3.866-3.134-7-7-7   c-7.152,0-8.22-7.081-8.22-11.303V101.413h255.827v242.105H147.462C146.999,332.411,142.775,321.953,135.209,313.471z    M386.609,384.929h-0.004c-18.975,0-34.412-15.436-34.412-34.408c0-18.976,15.438-34.414,34.412-34.414   c18.976,0,34.413,15.438,34.413,34.412C421.019,369.492,405.583,384.929,386.609,384.929z M472.342,334.929   c0,4.736-3.853,8.59-8.591,8.59h-23.24c-3.444-26.678-26.306-47.354-53.905-47.354c-14.313,0-28.057,5.616-38.701,15.814   c-8.843,8.473-14.956,19.501-17.578,31.539h-46.499v-210.18h66.244l60.804,111.84c0.781,1.437,2.041,2.555,3.56,3.16l41.983,16.709   v32.434h-14.616c-3.866,0-7,3.134-7,7c0,3.866,3.134,7,7,7h20.817c0.263,0.03,0.528,0.049,0.799,0.049h0.333   c4.737,0,8.591,3.853,8.591,8.59V334.929z" data-original="#000000" class="active-path" data-old_color="#ffffff" fill="#ffffff"/>
	<path d="M186.939,187.44h-30.732v-30.731c0-3.866-3.134-7-7-7h-16.554c-3.866,0-7,3.134-7,7v30.731H94.922c-3.866,0-7,3.134-7,7   v16.554c0,3.866,3.134,7,7,7h30.731v30.732c0,3.866,3.134,7,7,7h16.554c3.866,0,7-3.134,7-7v-30.732h30.732c3.866,0,7-3.134,7-7   V194.44C193.939,190.574,190.805,187.44,186.939,187.44z" data-original="#000000" class="active-path" data-old_color="#ffffff" fill="#ffffff"/>
	<path d="M140.931,124.709c-43.015,0-78.009,34.994-78.009,78.009c0,43.014,34.994,78.008,78.009,78.008   c43.014,0,78.008-34.994,78.008-78.008C218.939,159.703,183.944,124.709,140.931,124.709z M140.931,266.726   c-35.295,0-64.009-28.714-64.009-64.008c0-35.295,28.714-64.009,64.009-64.009c35.294,0,64.008,28.714,64.008,64.009   C204.939,238.012,176.225,266.726,140.931,266.726z" data-original="#000000" class="active-path" data-old_color="#ffffff" fill="#ffffff"/>
</g></g> </svg>
