<?xml version="1.0"?>
<svg xmlns="http://www.w3.org/2000/svg" viewBox="0 0 64 64" width="512px" height="512px" class=""><g><g id="outline"><path d="M20,62H44V60a1,1,0,0,0-.219-.625,8.375,8.375,0,0,1-.736-9.438l.823-1.441a1,1,0,0,0-.161-1.2l-8.5-8.5a2.536,2.536,0,0,1,3.586-3.586l10.5,10.5,1.414-1.414L49,42.586V32.773l2.773,3.345A9,9,0,0,1,54,42.044V62h2V42.044a10.976,10.976,0,0,0-2.7-7.222L49,29.639V7a5.006,5.006,0,0,0-5-5H20a5.006,5.006,0,0,0-5,5V57A5.006,5.006,0,0,0,20,62Zm-3-5V56H40.111a10.368,10.368,0,0,0,1.671,4H20A3,3,0,0,1,17,57ZM44.758,38.344A3.965,3.965,0,0,0,45,37V32a4,4,0,0,0-4-4H31a2,2,0,0,1,0-4h7V22H31a4,4,0,0,0,0,8H41a2,2,0,0,1,2,2v4.586l-2.793-2.793A4.523,4.523,0,0,0,32.952,39H25a2,2,0,0,1-2-2V35H21v2a4,4,0,0,0,4,4h9.586l7.167,7.167-.444.777A10.386,10.386,0,0,0,39.952,54H17V10H47V40.586ZM20,4H44a3,3,0,0,1,3,3V8H17V7A3,3,0,0,1,20,4Z" data-original="#000000" class="active-path" data-old_color="#ffffff" fill="#ffffff"/><path d="M22,26a3,3,0,0,0-3,3,3.389,3.389,0,0,0,1,2.414l1.293,1.293a1,1,0,0,0,1.414,0L24,31.414A3.389,3.389,0,0,0,25,29,3,3,0,0,0,22,26Zm.586,4L22,30.586,21.414,30A1.425,1.425,0,0,1,21,29a1,1,0,0,1,2,0A1.425,1.425,0,0,1,22.586,30Z" data-original="#000000" class="active-path" data-old_color="#ffffff" fill="#ffffff"/><path d="M38,13a3,3,0,0,0-3,3,3.389,3.389,0,0,0,1,2.414l1.293,1.293a1,1,0,0,0,1.414,0L40,18.414A3.389,3.389,0,0,0,41,16,3,3,0,0,0,38,13Zm.586,4L38,17.586,37.414,17A1.425,1.425,0,0,1,37,16a1,1,0,0,1,2,0A1.425,1.425,0,0,1,38.586,17Z" data-original="#000000" class="active-path" data-old_color="#ffffff" fill="#ffffff"/><rect x="43" y="12" width="2" height="2" data-original="#000000" class="active-path" data-old_color="#ffffff" fill="#ffffff"/><rect x="19" y="12" width="2" height="2" data-original="#000000" class="active-path" data-old_color="#ffffff" fill="#ffffff"/><rect x="23" y="12" width="2" height="2" data-original="#000000" class="active-path" data-old_color="#ffffff" fill="#ffffff"/><rect x="27" y="12" width="2" height="2" data-original="#000000" class="active-path" data-old_color="#ffffff" fill="#ffffff"/><rect x="19" y="45" width="18" height="2" data-original="#000000" class="active-path" data-old_color="#ffffff" fill="#ffffff"/><rect x="19" y="49" width="2" height="2" data-original="#000000" class="active-path" data-old_color="#ffffff" fill="#ffffff"/><rect x="23" y="49" width="2" height="2" data-original="#000000" class="active-path" data-old_color="#ffffff" fill="#ffffff"/><rect x="29" y="49" width="2" height="2" data-original="#000000" class="active-path" data-old_color="#ffffff" fill="#ffffff"/><rect x="33" y="49" width="2" height="2" data-original="#000000" class="active-path" data-old_color="#ffffff" fill="#ffffff"/></g></g> </svg>
