<?xml version="1.0"?>
<svg xmlns="http://www.w3.org/2000/svg" xmlns:xlink="http://www.w3.org/1999/xlink" width="512px" height="512px" viewBox="0 0 60 60" version="1.1" class=""><g><title class="active-path" style="fill:#FFFFFF" data-old_color="#000000">033 - Insurance</title><desc class="active-path" style="fill:#FFFFFF" data-old_color="#000000">Created with Sketch.</desc><defs class="active-path" style="fill:#FFFFFF" data-old_color="#000000"/><g id="Page-1" stroke="none" stroke-width="1" fill="none" fill-rule="evenodd"><g id="033---Insurance" fill="#000000" fill-rule="nonzero"><path d="M45.4,6.65 L30.4,0.084 C30.1449495,-0.027313148 29.8550505,-0.027313148 29.6,0.084 L14.6,6.65 C14.2357446,6.80897404 14.0002048,7.16856483 14,7.566 L14,23.266 C14.0054212,26.7943225 15.7009077,30.1064701 18.56,32.174 L28.927,39.651 C29.5672719,40.1144391 30.4327281,40.1144391 31.073,39.651 L41.44,32.175 C44.2990923,30.1074701 45.9945788,26.7953225 46,23.267 L46,7.566 C45.9997952,7.16856483 45.7642554,6.80897404 45.4,6.65 Z M44,23.267 C43.9954196,26.1529088 42.6085528,28.8619467 40.27,30.553 L30,37.96 L19.73,30.553 C17.3914472,28.8619467 16.0045804,26.1529088 16,23.267 L16,8.22 L30,2.092 L44,8.22 L44,23.267 Z" id="Shape" data-original="#000000" class="active-path" data-old_color="#000000" fill="#ffffff"/><path d="M29.6,4.45 L18.6,9.266 C18.2357446,9.42497404 18.0002048,9.78456483 18,10.182 L18,23.267 C18.003086,25.5106532 19.0814764,27.6168612 20.9,28.931 L29.415,35.073 C29.7643066,35.3249556 30.2356934,35.3249556 30.585,35.073 L39.1,28.931 C40.9185236,27.6168612 41.996914,25.5106532 42,23.267 L42,10.182 C41.9997952,9.78456483 41.7642554,9.42497404 41.4,9.266 L30.4,4.45 C30.1449495,4.33868685 29.8550505,4.33868685 29.6,4.45 Z M40,10.835 L40,23.267 C39.9969382,24.8680418 39.2273464,26.3707907 37.93,27.309 L30,33.029 L22.07,27.309 C20.7726536,26.3707907 20.0030618,24.8680418 20,23.267 L20,10.835 L30,6.458 L40,10.835 Z" id="Shape" data-original="#000000" class="active-path" data-old_color="#000000" fill="#ffffff"/><path d="M8.285,33.2 L6.122,28.146 C5.66202057,27.1040349 4.68110027,26.3866155 3.54874229,26.2639868 C2.4163843,26.1413582 1.30462076,26.6321504 0.632242236,27.5514868 C-0.0401362855,28.4708233 -0.170979487,29.6790349 0.289,30.721 L4.208,39.342 C4.7367119,40.509062 5.47222588,41.5708311 6.379,42.476 L12.542,48.64 C12.1949095,49.0078818 12.0010872,49.4942257 12,50 L12,58 C12,59.1045695 12.8954305,60 14,60 L25,60 C26.1045695,60 27,59.1045695 27,58 L27,50 C27,48.8954305 26.1045695,48 25,48 L25,46.139 C25.0306399,43.7706727 24.2579711,41.4618312 22.808,39.589 C21.9578989,38.470916 20.7993346,37.6258906 19.475,37.158 C17.3688382,36.273094 15.4318729,35.0300529 13.75,33.484 C12.1888463,32.1982345 9.97101938,32.0829806 8.285,33.2 Z M25,58 L14,58 L14,50 L25,50 L25,58 Z M21.247,40.838 C22.4126125,42.3566457 23.0304097,44.224839 23,46.139 L23,48 L14.731,48 L7.793,41.062 C7.05613326,40.3261769 6.45820511,39.463331 6.028,38.515 L2.109,29.894 C1.94175327,29.5260467 1.97287988,29.0983304 2.19163714,28.7584681 C2.41039441,28.4186059 2.78682049,28.2131465 3.191,28.213 C3.66664654,28.2126156 4.09651136,28.4964366 4.283,28.934 L6.52,34.151 C7.11402167,35.5429028 7.97024427,36.8075456 9.042,37.876 L13.61,42.445 C13.8610745,42.7049566 14.2328779,42.8092126 14.5825073,42.7176972 C14.9321368,42.6261817 15.2051817,42.3531368 15.2966972,42.0035073 C15.3882126,41.6538779 15.2839566,41.2820745 15.024,41.031 L10.456,36.462 C9.99666328,36.0037722 9.5836624,35.5013381 9.223,34.962 C10.1833362,34.2230209 11.5268309,34.2454194 12.462,35.016 C14.3313425,36.731555 16.4918904,38.0996763 18.842,39.056 C19.7995194,39.4041952 20.6351145,40.0233347 21.247,40.838 Z" id="Shape" data-original="#000000" class="active-path" data-old_color="#000000" fill="#ffffff"/><path d="M22,53 L21,53 C20.4477153,53 20,53.4477153 20,54 C20,54.5522847 20.4477153,55 21,55 L22,55 C22.5522847,55 23,54.5522847 23,54 C23,53.4477153 22.5522847,53 22,53 Z" id="Shape" data-original="#000000" class="active-path" data-old_color="#000000" fill="#ffffff"/><path d="M55.792,39.342 L59.711,30.721 C60.1928642,29.6755112 60.0736536,28.4514456 59.3991191,27.5185774 C58.7245846,26.5857091 57.5995134,26.0889571 56.4556875,26.2189655 C55.3118616,26.348974 54.3269714,27.0855465 53.879,28.146 L51.721,33.181 C50.0291245,32.0694769 47.8101972,32.1911509 46.25,33.481 C44.5681271,35.0270529 42.6311618,36.270094 40.525,37.155 C39.2006654,37.6228906 38.0421011,38.467916 37.192,39.586 C35.741385,41.4596396 34.9686796,43.7696481 35,46.139 L35,48 C33.8954305,48 33,48.8954305 33,50 L33,58 C33,59.1045695 33.8954305,60 35,60 L46,60 C47.1045695,60 48,59.1045695 48,58 L48,50 C47.9989128,49.4942257 47.8050905,49.0078818 47.458,48.64 L53.621,42.476 C54.5277741,41.5708311 55.2632881,40.509062 55.792,39.342 Z M46,58 L35,58 L35,50 L46,50 L46,58 Z M45.269,48 L37,48 L37,46.139 C36.9698168,44.2251802 37.587602,42.3573757 38.753,40.839 C39.3635264,40.0248642 40.1972635,39.4054671 41.153,39.056 C43.5035524,38.0999535 45.6644757,36.731809 47.534,35.016 C48.4681478,34.2395601 49.8154192,34.2134035 50.779,34.953 C50.4172837,35.4963142 50.0022252,36.0021563 49.54,36.463 L44.972,41.032 C44.5930278,41.4243789 44.5984476,42.0480848 44.9841814,42.4338186 C45.3699152,42.8195524 45.9936211,42.8249722 46.386,42.446 L50.954,37.877 C52.0257557,36.8085456 52.8819783,35.5439028 53.476,34.152 L55.713,28.934 C55.9000073,28.4970055 56.3296729,28.2137095 56.805,28.214 C57.2091795,28.2141465 57.5856056,28.4196059 57.8043629,28.7594681 C58.0231201,29.0993304 58.0542467,29.5270467 57.887,29.895 L53.968,38.516 C53.5377949,39.464331 52.9398667,40.3271769 52.203,41.063 L45.269,48 Z" id="Shape" data-original="#000000" class="active-path" data-old_color="#000000" fill="#ffffff"/><path d="M39,53 L38,53 C37.4477153,53 37,53.4477153 37,54 C37,54.5522847 37.4477153,55 38,55 L39,55 C39.5522847,55 40,54.5522847 40,54 C40,53.4477153 39.5522847,53 39,53 Z" id="Shape" data-original="#000000" class="active-path" data-old_color="#000000" fill="#ffffff"/><path d="M24.6,21.2 C24.1581722,20.8686292 23.5313709,20.9581722 23.2,21.4 C22.8686292,21.8418278 22.9581722,22.4686291 23.4,22.8 L27.4,25.8 C27.5730962,25.9298221 27.7836298,26 28,26 C28.056615,25.9998117 28.1131258,25.9951303 28.169,25.986 C28.4398302,25.9395277 28.6796036,25.783657 28.832,25.555 L36.832,13.555 C37.0302824,13.257755 37.0549246,12.8773069 36.8966441,12.5569669 C36.7383636,12.2366268 36.421207,12.025062 36.0646441,12.0019669 C35.7080812,11.9788718 35.3662824,12.147755 35.168,12.445 L27.754,23.566 L24.6,21.2 Z" id="Shape" data-original="#000000" class="active-path" data-old_color="#000000" fill="#ffffff"/></g></g></g> </svg>
