<?xml version="1.0"?>
<svg xmlns="http://www.w3.org/2000/svg" height="512px" viewBox="-11 0 479 480" width="512px" class=""><g><path d="m220.675781 368h16v32h-16zm0 0" data-original="#000000" class="active-path" data-old_color="#ffffff" fill="#ffffff"/><path d="m220.675781 416h16v32h-16zm0 0" data-original="#000000" class="active-path" data-old_color="#ffffff" fill="#ffffff"/><path d="m220.675781 272h16v32h-16zm0 0" data-original="#000000" class="active-path" data-old_color="#ffffff" fill="#ffffff"/><path d="m220.675781 320h16v32h-16zm0 0" data-original="#000000" class="active-path" data-old_color="#ffffff" fill="#ffffff"/><path d="m.5 468.898438 117.941406-280 14.746094 6.210937-117.941406 280zm0 0" data-original="#000000" class="active-path" data-old_color="#ffffff" fill="#ffffff"/><path d="m324.152344 195.105469 14.746094-6.210938 117.960937 279.988281-14.746094 6.210938zm0 0" data-original="#000000" class="active-path" data-old_color="#ffffff" fill="#ffffff"/><path d="m308.179688 189.214844c-1.164063-3.136719-4.160157-5.214844-7.503907-5.214844h-14.183593c20.007812-30.496094 38.183593-64.609375 38.183593-88 0-53.019531-42.980469-96-96-96s-96 42.980469-96 96c0 23.390625 18.175781 57.503906 38.183594 88h-14.183594c-3.34375 0-6.332031 2.082031-7.496093 5.214844l-104 280c-.910157 2.457031-.5625 5.203125.929687 7.351562 1.496094 2.148438 3.945313 3.433594 6.566406 3.433594h352c2.617188 0 5.074219-1.28125 6.570313-3.429688 1.496094-2.152343 1.84375-4.898437.933594-7.355468zm-79.503907-173.214844c44.160157.046875 79.949219 35.835938 80 80 0 34.585938-53.039062 106.550781-80 139.503906-26.960937-32.945312-80-104.902344-80-139.503906.046875-44.164062 35.835938-79.953125 80-80zm-164.496093 448 98.09375-264h19.496093c20.128907 28.695312 39.203125 51.199219 40.847657 53.183594 1.523437 1.789062 3.75 2.820312 6.097656 2.820312s4.574218-1.03125 6.097656-2.820312c1.679688-1.976563 20.71875-24.488282 40.847656-53.183594h19.496094l98.015625 264zm0 0" data-original="#000000" class="active-path" data-old_color="#ffffff" fill="#ffffff"/><path d="m292.675781 96c0-35.347656-28.65625-64-64-64-35.347656 0-64 28.652344-64 64s28.652344 64 64 64c35.328125-.039062 63.960938-28.671875 64-64zm-112 0c0-26.507812 21.488281-48 48-48 26.507813 0 48 21.492188 48 48s-21.492187 48-48 48c-26.5-.027344-47.972656-21.5-48-48zm0 0" data-original="#000000" class="active-path" data-old_color="#ffffff" fill="#ffffff"/></g> </svg>
